<mxfile host="app.diagrams.net" modified="2020-11-10T14:45:58.047Z" agent="5.0 (Windows NT 10.0; Win64; x64) AppleWebKit/537.36 (KHTML, like Gecko) Chrome/86.0.4240.183 Safari/537.36" etag="_kpHuam7FTCFIYD6bWx6" version="13.9.2" type="github">
  <diagram id="T4zZx8YtHBWHC4_CP2Lo" name="Page-1">
    <mxGraphModel dx="2858" dy="2258" grid="1" gridSize="10" guides="1" tooltips="1" connect="1" arrows="1" fold="1" page="1" pageScale="1" pageWidth="827" pageHeight="1169" math="0" shadow="0">
      <root>
        <mxCell id="0" />
        <mxCell id="1" parent="0" />
        <mxCell id="iFAtIKYe37oV54bXB_B9-399" value="" style="rounded=0;whiteSpace=wrap;html=1;fillColor=#fad7ac;strokeColor=#b46504;" vertex="1" parent="1">
          <mxGeometry x="140" y="-60" width="260" height="330" as="geometry" />
        </mxCell>
        <mxCell id="iFAtIKYe37oV54bXB_B9-397" value="" style="rounded=0;whiteSpace=wrap;html=1;fillColor=#fad9d5;strokeColor=#ae4132;" vertex="1" parent="1">
          <mxGeometry x="530" width="260" height="550" as="geometry" />
        </mxCell>
        <mxCell id="iFAtIKYe37oV54bXB_B9-395" value="" style="rounded=0;whiteSpace=wrap;html=1;fillColor=#d5e8d4;strokeColor=#82b366;" vertex="1" parent="1">
          <mxGeometry x="-250" y="10" width="250" height="400" as="geometry" />
        </mxCell>
        <mxCell id="iFAtIKYe37oV54bXB_B9-364" value="" style="rounded=0;whiteSpace=wrap;html=1;fillColor=#e1d5e7;strokeColor=#9673a6;" vertex="1" parent="1">
          <mxGeometry x="140" y="390" width="260" height="370" as="geometry" />
        </mxCell>
        <mxCell id="iFAtIKYe37oV54bXB_B9-1" value="Table user" style="shape=table;html=1;whiteSpace=wrap;startSize=30;container=1;collapsible=0;childLayout=tableLayout;fixedRows=1;rowLines=0;fontStyle=1;align=center;" vertex="1" parent="1">
          <mxGeometry x="160" y="-50" width="220" height="280" as="geometry" />
        </mxCell>
        <mxCell id="iFAtIKYe37oV54bXB_B9-2" value="" style="shape=partialRectangle;html=1;whiteSpace=wrap;collapsible=0;dropTarget=0;pointerEvents=0;fillColor=none;top=0;left=0;bottom=1;right=0;points=[[0,0.5],[1,0.5]];portConstraint=eastwest;" vertex="1" parent="iFAtIKYe37oV54bXB_B9-1">
          <mxGeometry y="30" width="220" height="30" as="geometry" />
        </mxCell>
        <mxCell id="iFAtIKYe37oV54bXB_B9-3" value="1" style="shape=partialRectangle;html=1;whiteSpace=wrap;connectable=0;fillColor=none;top=0;left=0;bottom=0;right=0;overflow=hidden;" vertex="1" parent="iFAtIKYe37oV54bXB_B9-2">
          <mxGeometry width="40" height="30" as="geometry" />
        </mxCell>
        <mxCell id="iFAtIKYe37oV54bXB_B9-4" value="id" style="shape=partialRectangle;html=1;whiteSpace=wrap;connectable=0;fillColor=none;top=0;left=0;bottom=0;right=0;align=left;spacingLeft=6;overflow=hidden;" vertex="1" parent="iFAtIKYe37oV54bXB_B9-2">
          <mxGeometry x="40" width="140" height="30" as="geometry" />
        </mxCell>
        <mxCell id="iFAtIKYe37oV54bXB_B9-81" value="serial" style="shape=partialRectangle;html=1;whiteSpace=wrap;connectable=0;fillColor=none;top=0;left=0;bottom=0;right=0;align=left;spacingLeft=6;overflow=hidden;" vertex="1" parent="iFAtIKYe37oV54bXB_B9-2">
          <mxGeometry x="180" width="40" height="30" as="geometry" />
        </mxCell>
        <mxCell id="iFAtIKYe37oV54bXB_B9-5" value="" style="shape=partialRectangle;html=1;whiteSpace=wrap;collapsible=0;dropTarget=0;pointerEvents=0;fillColor=none;top=0;left=0;bottom=0;right=0;points=[[0,0.5],[1,0.5]];portConstraint=eastwest;" vertex="1" parent="iFAtIKYe37oV54bXB_B9-1">
          <mxGeometry y="60" width="220" height="30" as="geometry" />
        </mxCell>
        <mxCell id="iFAtIKYe37oV54bXB_B9-6" value="2" style="shape=partialRectangle;html=1;whiteSpace=wrap;connectable=0;fillColor=none;top=0;left=0;bottom=0;right=0;overflow=hidden;" vertex="1" parent="iFAtIKYe37oV54bXB_B9-5">
          <mxGeometry width="40" height="30" as="geometry" />
        </mxCell>
        <mxCell id="iFAtIKYe37oV54bXB_B9-7" value="pseudo" style="shape=partialRectangle;html=1;whiteSpace=wrap;connectable=0;fillColor=none;top=0;left=0;bottom=0;right=0;align=left;spacingLeft=6;overflow=hidden;" vertex="1" parent="iFAtIKYe37oV54bXB_B9-5">
          <mxGeometry x="40" width="140" height="30" as="geometry" />
        </mxCell>
        <mxCell id="iFAtIKYe37oV54bXB_B9-82" value="txt" style="shape=partialRectangle;html=1;whiteSpace=wrap;connectable=0;fillColor=none;top=0;left=0;bottom=0;right=0;align=left;spacingLeft=6;overflow=hidden;" vertex="1" parent="iFAtIKYe37oV54bXB_B9-5">
          <mxGeometry x="180" width="40" height="30" as="geometry" />
        </mxCell>
        <mxCell id="iFAtIKYe37oV54bXB_B9-8" value="" style="shape=partialRectangle;html=1;whiteSpace=wrap;collapsible=0;dropTarget=0;pointerEvents=0;fillColor=none;top=0;left=0;bottom=0;right=0;points=[[0,0.5],[1,0.5]];portConstraint=eastwest;" vertex="1" parent="iFAtIKYe37oV54bXB_B9-1">
          <mxGeometry y="90" width="220" height="30" as="geometry" />
        </mxCell>
        <mxCell id="iFAtIKYe37oV54bXB_B9-9" value="3" style="shape=partialRectangle;html=1;whiteSpace=wrap;connectable=0;fillColor=none;top=0;left=0;bottom=0;right=0;overflow=hidden;" vertex="1" parent="iFAtIKYe37oV54bXB_B9-8">
          <mxGeometry width="40" height="30" as="geometry" />
        </mxCell>
        <mxCell id="iFAtIKYe37oV54bXB_B9-10" value="email" style="shape=partialRectangle;html=1;whiteSpace=wrap;connectable=0;fillColor=none;top=0;left=0;bottom=0;right=0;align=left;spacingLeft=6;overflow=hidden;" vertex="1" parent="iFAtIKYe37oV54bXB_B9-8">
          <mxGeometry x="40" width="140" height="30" as="geometry" />
        </mxCell>
        <mxCell id="iFAtIKYe37oV54bXB_B9-83" value="txt" style="shape=partialRectangle;html=1;whiteSpace=wrap;connectable=0;fillColor=none;top=0;left=0;bottom=0;right=0;align=left;spacingLeft=6;overflow=hidden;" vertex="1" parent="iFAtIKYe37oV54bXB_B9-8">
          <mxGeometry x="180" width="40" height="30" as="geometry" />
        </mxCell>
        <mxCell id="iFAtIKYe37oV54bXB_B9-84" style="shape=partialRectangle;html=1;whiteSpace=wrap;collapsible=0;dropTarget=0;pointerEvents=0;fillColor=none;top=0;left=0;bottom=0;right=0;points=[[0,0.5],[1,0.5]];portConstraint=eastwest;" vertex="1" parent="iFAtIKYe37oV54bXB_B9-1">
          <mxGeometry y="120" width="220" height="30" as="geometry" />
        </mxCell>
        <mxCell id="iFAtIKYe37oV54bXB_B9-85" value="4" style="shape=partialRectangle;html=1;whiteSpace=wrap;connectable=0;fillColor=none;top=0;left=0;bottom=0;right=0;overflow=hidden;" vertex="1" parent="iFAtIKYe37oV54bXB_B9-84">
          <mxGeometry width="40" height="30" as="geometry" />
        </mxCell>
        <mxCell id="iFAtIKYe37oV54bXB_B9-86" value="prenom" style="shape=partialRectangle;html=1;whiteSpace=wrap;connectable=0;fillColor=none;top=0;left=0;bottom=0;right=0;align=left;spacingLeft=6;overflow=hidden;" vertex="1" parent="iFAtIKYe37oV54bXB_B9-84">
          <mxGeometry x="40" width="140" height="30" as="geometry" />
        </mxCell>
        <mxCell id="iFAtIKYe37oV54bXB_B9-87" value="txt" style="shape=partialRectangle;html=1;whiteSpace=wrap;connectable=0;fillColor=none;top=0;left=0;bottom=0;right=0;align=left;spacingLeft=6;overflow=hidden;" vertex="1" parent="iFAtIKYe37oV54bXB_B9-84">
          <mxGeometry x="180" width="40" height="30" as="geometry" />
        </mxCell>
        <mxCell id="iFAtIKYe37oV54bXB_B9-89" style="shape=partialRectangle;html=1;whiteSpace=wrap;collapsible=0;dropTarget=0;pointerEvents=0;fillColor=none;top=0;left=0;bottom=0;right=0;points=[[0,0.5],[1,0.5]];portConstraint=eastwest;" vertex="1" parent="iFAtIKYe37oV54bXB_B9-1">
          <mxGeometry y="150" width="220" height="30" as="geometry" />
        </mxCell>
        <mxCell id="iFAtIKYe37oV54bXB_B9-90" value="5" style="shape=partialRectangle;html=1;whiteSpace=wrap;connectable=0;fillColor=none;top=0;left=0;bottom=0;right=0;overflow=hidden;" vertex="1" parent="iFAtIKYe37oV54bXB_B9-89">
          <mxGeometry width="40" height="30" as="geometry" />
        </mxCell>
        <mxCell id="iFAtIKYe37oV54bXB_B9-91" value="nom" style="shape=partialRectangle;html=1;whiteSpace=wrap;connectable=0;fillColor=none;top=0;left=0;bottom=0;right=0;align=left;spacingLeft=6;overflow=hidden;" vertex="1" parent="iFAtIKYe37oV54bXB_B9-89">
          <mxGeometry x="40" width="140" height="30" as="geometry" />
        </mxCell>
        <mxCell id="iFAtIKYe37oV54bXB_B9-92" value="txt" style="shape=partialRectangle;html=1;whiteSpace=wrap;connectable=0;fillColor=none;top=0;left=0;bottom=0;right=0;align=left;spacingLeft=6;overflow=hidden;" vertex="1" parent="iFAtIKYe37oV54bXB_B9-89">
          <mxGeometry x="180" width="40" height="30" as="geometry" />
        </mxCell>
        <mxCell id="iFAtIKYe37oV54bXB_B9-93" style="shape=partialRectangle;html=1;whiteSpace=wrap;collapsible=0;dropTarget=0;pointerEvents=0;fillColor=none;top=0;left=0;bottom=0;right=0;points=[[0,0.5],[1,0.5]];portConstraint=eastwest;" vertex="1" parent="iFAtIKYe37oV54bXB_B9-1">
          <mxGeometry y="180" width="220" height="30" as="geometry" />
        </mxCell>
        <mxCell id="iFAtIKYe37oV54bXB_B9-94" value="6" style="shape=partialRectangle;html=1;whiteSpace=wrap;connectable=0;fillColor=none;top=0;left=0;bottom=0;right=0;overflow=hidden;" vertex="1" parent="iFAtIKYe37oV54bXB_B9-93">
          <mxGeometry width="40" height="30" as="geometry" />
        </mxCell>
        <mxCell id="iFAtIKYe37oV54bXB_B9-95" value="adresse" style="shape=partialRectangle;html=1;whiteSpace=wrap;connectable=0;fillColor=none;top=0;left=0;bottom=0;right=0;align=left;spacingLeft=6;overflow=hidden;" vertex="1" parent="iFAtIKYe37oV54bXB_B9-93">
          <mxGeometry x="40" width="140" height="30" as="geometry" />
        </mxCell>
        <mxCell id="iFAtIKYe37oV54bXB_B9-96" value="txt" style="shape=partialRectangle;html=1;whiteSpace=wrap;connectable=0;fillColor=none;top=0;left=0;bottom=0;right=0;align=left;spacingLeft=6;overflow=hidden;" vertex="1" parent="iFAtIKYe37oV54bXB_B9-93">
          <mxGeometry x="180" width="40" height="30" as="geometry" />
        </mxCell>
        <mxCell id="iFAtIKYe37oV54bXB_B9-97" style="shape=partialRectangle;html=1;whiteSpace=wrap;collapsible=0;dropTarget=0;pointerEvents=0;fillColor=none;top=0;left=0;bottom=0;right=0;points=[[0,0.5],[1,0.5]];portConstraint=eastwest;" vertex="1" parent="iFAtIKYe37oV54bXB_B9-1">
          <mxGeometry y="210" width="220" height="30" as="geometry" />
        </mxCell>
        <mxCell id="iFAtIKYe37oV54bXB_B9-98" value="7" style="shape=partialRectangle;html=1;whiteSpace=wrap;connectable=0;fillColor=none;top=0;left=0;bottom=0;right=0;overflow=hidden;" vertex="1" parent="iFAtIKYe37oV54bXB_B9-97">
          <mxGeometry width="40" height="30" as="geometry" />
        </mxCell>
        <mxCell id="iFAtIKYe37oV54bXB_B9-99" value="code postal" style="shape=partialRectangle;html=1;whiteSpace=wrap;connectable=0;fillColor=none;top=0;left=0;bottom=0;right=0;align=left;spacingLeft=6;overflow=hidden;" vertex="1" parent="iFAtIKYe37oV54bXB_B9-97">
          <mxGeometry x="40" width="140" height="30" as="geometry" />
        </mxCell>
        <mxCell id="iFAtIKYe37oV54bXB_B9-100" value="int" style="shape=partialRectangle;html=1;whiteSpace=wrap;connectable=0;fillColor=none;top=0;left=0;bottom=0;right=0;align=left;spacingLeft=6;overflow=hidden;" vertex="1" parent="iFAtIKYe37oV54bXB_B9-97">
          <mxGeometry x="180" width="40" height="30" as="geometry" />
        </mxCell>
        <mxCell id="iFAtIKYe37oV54bXB_B9-101" style="shape=partialRectangle;html=1;whiteSpace=wrap;collapsible=0;dropTarget=0;pointerEvents=0;fillColor=none;top=0;left=0;bottom=0;right=0;points=[[0,0.5],[1,0.5]];portConstraint=eastwest;" vertex="1" parent="iFAtIKYe37oV54bXB_B9-1">
          <mxGeometry y="240" width="220" height="30" as="geometry" />
        </mxCell>
        <mxCell id="iFAtIKYe37oV54bXB_B9-102" value="8" style="shape=partialRectangle;html=1;whiteSpace=wrap;connectable=0;fillColor=none;top=0;left=0;bottom=0;right=0;overflow=hidden;" vertex="1" parent="iFAtIKYe37oV54bXB_B9-101">
          <mxGeometry width="40" height="30" as="geometry" />
        </mxCell>
        <mxCell id="iFAtIKYe37oV54bXB_B9-103" value="hebergeur" style="shape=partialRectangle;html=1;whiteSpace=wrap;connectable=0;fillColor=none;top=0;left=0;bottom=0;right=0;align=left;spacingLeft=6;overflow=hidden;" vertex="1" parent="iFAtIKYe37oV54bXB_B9-101">
          <mxGeometry x="40" width="140" height="30" as="geometry" />
        </mxCell>
        <mxCell id="iFAtIKYe37oV54bXB_B9-104" value="bool" style="shape=partialRectangle;html=1;whiteSpace=wrap;connectable=0;fillColor=none;top=0;left=0;bottom=0;right=0;align=left;spacingLeft=6;overflow=hidden;" vertex="1" parent="iFAtIKYe37oV54bXB_B9-101">
          <mxGeometry x="180" width="40" height="30" as="geometry" />
        </mxCell>
        <mxCell id="iFAtIKYe37oV54bXB_B9-148" value="Table animal" style="shape=table;html=1;whiteSpace=wrap;startSize=30;container=1;collapsible=0;childLayout=tableLayout;fixedRows=1;rowLines=0;fontStyle=1;align=center;" vertex="1" parent="1">
          <mxGeometry x="160" y="550" width="216" height="160" as="geometry" />
        </mxCell>
        <mxCell id="iFAtIKYe37oV54bXB_B9-149" value="" style="shape=partialRectangle;html=1;whiteSpace=wrap;collapsible=0;dropTarget=0;pointerEvents=0;fillColor=none;top=0;left=0;bottom=1;right=0;points=[[0,0.5],[1,0.5]];portConstraint=eastwest;" vertex="1" parent="iFAtIKYe37oV54bXB_B9-148">
          <mxGeometry y="30" width="216" height="30" as="geometry" />
        </mxCell>
        <mxCell id="iFAtIKYe37oV54bXB_B9-150" value="1" style="shape=partialRectangle;html=1;whiteSpace=wrap;connectable=0;fillColor=none;top=0;left=0;bottom=0;right=0;overflow=hidden;" vertex="1" parent="iFAtIKYe37oV54bXB_B9-149">
          <mxGeometry width="40" height="30" as="geometry" />
        </mxCell>
        <mxCell id="iFAtIKYe37oV54bXB_B9-151" value="id" style="shape=partialRectangle;html=1;whiteSpace=wrap;connectable=0;fillColor=none;top=0;left=0;bottom=0;right=0;align=left;spacingLeft=6;overflow=hidden;" vertex="1" parent="iFAtIKYe37oV54bXB_B9-149">
          <mxGeometry x="40" width="140" height="30" as="geometry" />
        </mxCell>
        <mxCell id="iFAtIKYe37oV54bXB_B9-158" value="&lt;font style=&quot;font-size: 11px&quot;&gt;serial&lt;/font&gt;" style="shape=partialRectangle;html=1;whiteSpace=wrap;connectable=0;fillColor=none;top=0;left=0;bottom=0;right=0;align=center;spacingLeft=6;overflow=hidden;" vertex="1" parent="iFAtIKYe37oV54bXB_B9-149">
          <mxGeometry x="180" width="36" height="30" as="geometry" />
        </mxCell>
        <mxCell id="iFAtIKYe37oV54bXB_B9-152" value="" style="shape=partialRectangle;html=1;whiteSpace=wrap;collapsible=0;dropTarget=0;pointerEvents=0;fillColor=none;top=0;left=0;bottom=0;right=0;points=[[0,0.5],[1,0.5]];portConstraint=eastwest;" vertex="1" parent="iFAtIKYe37oV54bXB_B9-148">
          <mxGeometry y="60" width="216" height="30" as="geometry" />
        </mxCell>
        <mxCell id="iFAtIKYe37oV54bXB_B9-153" value="2" style="shape=partialRectangle;html=1;whiteSpace=wrap;connectable=0;fillColor=none;top=0;left=0;bottom=0;right=0;overflow=hidden;" vertex="1" parent="iFAtIKYe37oV54bXB_B9-152">
          <mxGeometry width="40" height="30" as="geometry" />
        </mxCell>
        <mxCell id="iFAtIKYe37oV54bXB_B9-154" value="nom" style="shape=partialRectangle;html=1;whiteSpace=wrap;connectable=0;fillColor=none;top=0;left=0;bottom=0;right=0;align=left;spacingLeft=6;overflow=hidden;" vertex="1" parent="iFAtIKYe37oV54bXB_B9-152">
          <mxGeometry x="40" width="140" height="30" as="geometry" />
        </mxCell>
        <mxCell id="iFAtIKYe37oV54bXB_B9-159" value="txt" style="shape=partialRectangle;html=1;whiteSpace=wrap;connectable=0;fillColor=none;top=0;left=0;bottom=0;right=0;align=left;spacingLeft=6;overflow=hidden;" vertex="1" parent="iFAtIKYe37oV54bXB_B9-152">
          <mxGeometry x="180" width="36" height="30" as="geometry" />
        </mxCell>
        <mxCell id="iFAtIKYe37oV54bXB_B9-155" value="" style="shape=partialRectangle;html=1;whiteSpace=wrap;collapsible=0;dropTarget=0;pointerEvents=0;fillColor=none;top=0;left=0;bottom=0;right=0;points=[[0,0.5],[1,0.5]];portConstraint=eastwest;" vertex="1" parent="iFAtIKYe37oV54bXB_B9-148">
          <mxGeometry y="90" width="216" height="30" as="geometry" />
        </mxCell>
        <mxCell id="iFAtIKYe37oV54bXB_B9-156" value="3" style="shape=partialRectangle;html=1;whiteSpace=wrap;connectable=0;fillColor=none;top=0;left=0;bottom=0;right=0;overflow=hidden;" vertex="1" parent="iFAtIKYe37oV54bXB_B9-155">
          <mxGeometry width="40" height="30" as="geometry" />
        </mxCell>
        <mxCell id="iFAtIKYe37oV54bXB_B9-157" value="id_type_animal" style="shape=partialRectangle;html=1;whiteSpace=wrap;connectable=0;fillColor=none;top=0;left=0;bottom=0;right=0;align=left;spacingLeft=6;overflow=hidden;" vertex="1" parent="iFAtIKYe37oV54bXB_B9-155">
          <mxGeometry x="40" width="140" height="30" as="geometry" />
        </mxCell>
        <mxCell id="iFAtIKYe37oV54bXB_B9-160" value="txt" style="shape=partialRectangle;html=1;whiteSpace=wrap;connectable=0;fillColor=none;top=0;left=0;bottom=0;right=0;align=left;spacingLeft=6;overflow=hidden;" vertex="1" parent="iFAtIKYe37oV54bXB_B9-155">
          <mxGeometry x="180" width="36" height="30" as="geometry" />
        </mxCell>
        <mxCell id="iFAtIKYe37oV54bXB_B9-174" style="shape=partialRectangle;html=1;whiteSpace=wrap;collapsible=0;dropTarget=0;pointerEvents=0;fillColor=none;top=0;left=0;bottom=0;right=0;points=[[0,0.5],[1,0.5]];portConstraint=eastwest;" vertex="1" parent="iFAtIKYe37oV54bXB_B9-148">
          <mxGeometry y="120" width="216" height="30" as="geometry" />
        </mxCell>
        <mxCell id="iFAtIKYe37oV54bXB_B9-175" value="4" style="shape=partialRectangle;html=1;whiteSpace=wrap;connectable=0;fillColor=none;top=0;left=0;bottom=0;right=0;overflow=hidden;" vertex="1" parent="iFAtIKYe37oV54bXB_B9-174">
          <mxGeometry width="40" height="30" as="geometry" />
        </mxCell>
        <mxCell id="iFAtIKYe37oV54bXB_B9-176" value="id_propriétaire" style="shape=partialRectangle;html=1;whiteSpace=wrap;connectable=0;fillColor=none;top=0;left=0;bottom=0;right=0;align=left;spacingLeft=6;overflow=hidden;" vertex="1" parent="iFAtIKYe37oV54bXB_B9-174">
          <mxGeometry x="40" width="140" height="30" as="geometry" />
        </mxCell>
        <mxCell id="iFAtIKYe37oV54bXB_B9-177" value="int" style="shape=partialRectangle;html=1;whiteSpace=wrap;connectable=0;fillColor=none;top=0;left=0;bottom=0;right=0;align=left;spacingLeft=6;overflow=hidden;" vertex="1" parent="iFAtIKYe37oV54bXB_B9-174">
          <mxGeometry x="180" width="36" height="30" as="geometry" />
        </mxCell>
        <mxCell id="iFAtIKYe37oV54bXB_B9-182" value="Table plage_hebergement" style="shape=table;html=1;whiteSpace=wrap;startSize=30;container=1;collapsible=0;childLayout=tableLayout;fixedRows=1;rowLines=0;fontStyle=1;align=center;" vertex="1" parent="1">
          <mxGeometry x="550" y="30" width="220" height="220" as="geometry" />
        </mxCell>
        <mxCell id="iFAtIKYe37oV54bXB_B9-183" value="" style="shape=partialRectangle;html=1;whiteSpace=wrap;collapsible=0;dropTarget=0;pointerEvents=0;fillColor=none;top=0;left=0;bottom=1;right=0;points=[[0,0.5],[1,0.5]];portConstraint=eastwest;" vertex="1" parent="iFAtIKYe37oV54bXB_B9-182">
          <mxGeometry y="30" width="220" height="30" as="geometry" />
        </mxCell>
        <mxCell id="iFAtIKYe37oV54bXB_B9-184" value="1" style="shape=partialRectangle;html=1;whiteSpace=wrap;connectable=0;fillColor=none;top=0;left=0;bottom=0;right=0;overflow=hidden;" vertex="1" parent="iFAtIKYe37oV54bXB_B9-183">
          <mxGeometry width="40" height="30" as="geometry" />
        </mxCell>
        <mxCell id="iFAtIKYe37oV54bXB_B9-185" value="id" style="shape=partialRectangle;html=1;whiteSpace=wrap;connectable=0;fillColor=none;top=0;left=0;bottom=0;right=0;align=left;spacingLeft=6;overflow=hidden;" vertex="1" parent="iFAtIKYe37oV54bXB_B9-183">
          <mxGeometry x="40" width="140" height="30" as="geometry" />
        </mxCell>
        <mxCell id="iFAtIKYe37oV54bXB_B9-192" value="serial" style="shape=partialRectangle;html=1;whiteSpace=wrap;connectable=0;fillColor=none;top=0;left=0;bottom=0;right=0;align=left;spacingLeft=6;overflow=hidden;" vertex="1" parent="iFAtIKYe37oV54bXB_B9-183">
          <mxGeometry x="180" width="40" height="30" as="geometry" />
        </mxCell>
        <mxCell id="iFAtIKYe37oV54bXB_B9-186" value="" style="shape=partialRectangle;html=1;whiteSpace=wrap;collapsible=0;dropTarget=0;pointerEvents=0;fillColor=none;top=0;left=0;bottom=0;right=0;points=[[0,0.5],[1,0.5]];portConstraint=eastwest;" vertex="1" parent="iFAtIKYe37oV54bXB_B9-182">
          <mxGeometry y="60" width="220" height="30" as="geometry" />
        </mxCell>
        <mxCell id="iFAtIKYe37oV54bXB_B9-187" value="2" style="shape=partialRectangle;html=1;whiteSpace=wrap;connectable=0;fillColor=none;top=0;left=0;bottom=0;right=0;overflow=hidden;" vertex="1" parent="iFAtIKYe37oV54bXB_B9-186">
          <mxGeometry width="40" height="30" as="geometry" />
        </mxCell>
        <mxCell id="iFAtIKYe37oV54bXB_B9-188" value="id_user" style="shape=partialRectangle;html=1;whiteSpace=wrap;connectable=0;fillColor=none;top=0;left=0;bottom=0;right=0;align=left;spacingLeft=6;overflow=hidden;" vertex="1" parent="iFAtIKYe37oV54bXB_B9-186">
          <mxGeometry x="40" width="140" height="30" as="geometry" />
        </mxCell>
        <mxCell id="iFAtIKYe37oV54bXB_B9-193" value="int" style="shape=partialRectangle;html=1;whiteSpace=wrap;connectable=0;fillColor=none;top=0;left=0;bottom=0;right=0;align=left;spacingLeft=6;overflow=hidden;" vertex="1" parent="iFAtIKYe37oV54bXB_B9-186">
          <mxGeometry x="180" width="40" height="30" as="geometry" />
        </mxCell>
        <mxCell id="iFAtIKYe37oV54bXB_B9-189" value="" style="shape=partialRectangle;html=1;whiteSpace=wrap;collapsible=0;dropTarget=0;pointerEvents=0;fillColor=none;top=0;left=0;bottom=0;right=0;points=[[0,0.5],[1,0.5]];portConstraint=eastwest;" vertex="1" parent="iFAtIKYe37oV54bXB_B9-182">
          <mxGeometry y="90" width="220" height="30" as="geometry" />
        </mxCell>
        <mxCell id="iFAtIKYe37oV54bXB_B9-190" value="3" style="shape=partialRectangle;html=1;whiteSpace=wrap;connectable=0;fillColor=none;top=0;left=0;bottom=0;right=0;overflow=hidden;" vertex="1" parent="iFAtIKYe37oV54bXB_B9-189">
          <mxGeometry width="40" height="30" as="geometry" />
        </mxCell>
        <mxCell id="iFAtIKYe37oV54bXB_B9-191" value="id_type_animal" style="shape=partialRectangle;html=1;whiteSpace=wrap;connectable=0;fillColor=none;top=0;left=0;bottom=0;right=0;align=left;spacingLeft=6;overflow=hidden;" vertex="1" parent="iFAtIKYe37oV54bXB_B9-189">
          <mxGeometry x="40" width="140" height="30" as="geometry" />
        </mxCell>
        <mxCell id="iFAtIKYe37oV54bXB_B9-194" value="int" style="shape=partialRectangle;html=1;whiteSpace=wrap;connectable=0;fillColor=none;top=0;left=0;bottom=0;right=0;align=left;spacingLeft=6;overflow=hidden;" vertex="1" parent="iFAtIKYe37oV54bXB_B9-189">
          <mxGeometry x="180" width="40" height="30" as="geometry" />
        </mxCell>
        <mxCell id="iFAtIKYe37oV54bXB_B9-195" style="shape=partialRectangle;html=1;whiteSpace=wrap;collapsible=0;dropTarget=0;pointerEvents=0;fillColor=none;top=0;left=0;bottom=0;right=0;points=[[0,0.5],[1,0.5]];portConstraint=eastwest;" vertex="1" parent="iFAtIKYe37oV54bXB_B9-182">
          <mxGeometry y="120" width="220" height="30" as="geometry" />
        </mxCell>
        <mxCell id="iFAtIKYe37oV54bXB_B9-196" value="4" style="shape=partialRectangle;html=1;whiteSpace=wrap;connectable=0;fillColor=none;top=0;left=0;bottom=0;right=0;overflow=hidden;" vertex="1" parent="iFAtIKYe37oV54bXB_B9-195">
          <mxGeometry width="40" height="30" as="geometry" />
        </mxCell>
        <mxCell id="iFAtIKYe37oV54bXB_B9-197" value="nb_possible" style="shape=partialRectangle;html=1;whiteSpace=wrap;connectable=0;fillColor=none;top=0;left=0;bottom=0;right=0;align=left;spacingLeft=6;overflow=hidden;" vertex="1" parent="iFAtIKYe37oV54bXB_B9-195">
          <mxGeometry x="40" width="140" height="30" as="geometry" />
        </mxCell>
        <mxCell id="iFAtIKYe37oV54bXB_B9-198" value="int" style="shape=partialRectangle;html=1;whiteSpace=wrap;connectable=0;fillColor=none;top=0;left=0;bottom=0;right=0;align=left;spacingLeft=6;overflow=hidden;" vertex="1" parent="iFAtIKYe37oV54bXB_B9-195">
          <mxGeometry x="180" width="40" height="30" as="geometry" />
        </mxCell>
        <mxCell id="iFAtIKYe37oV54bXB_B9-199" style="shape=partialRectangle;html=1;whiteSpace=wrap;collapsible=0;dropTarget=0;pointerEvents=0;fillColor=none;top=0;left=0;bottom=0;right=0;points=[[0,0.5],[1,0.5]];portConstraint=eastwest;" vertex="1" parent="iFAtIKYe37oV54bXB_B9-182">
          <mxGeometry y="150" width="220" height="30" as="geometry" />
        </mxCell>
        <mxCell id="iFAtIKYe37oV54bXB_B9-200" value="5" style="shape=partialRectangle;html=1;whiteSpace=wrap;connectable=0;fillColor=none;top=0;left=0;bottom=0;right=0;overflow=hidden;" vertex="1" parent="iFAtIKYe37oV54bXB_B9-199">
          <mxGeometry width="40" height="30" as="geometry" />
        </mxCell>
        <mxCell id="iFAtIKYe37oV54bXB_B9-201" value="debut" style="shape=partialRectangle;html=1;whiteSpace=wrap;connectable=0;fillColor=none;top=0;left=0;bottom=0;right=0;align=left;spacingLeft=6;overflow=hidden;" vertex="1" parent="iFAtIKYe37oV54bXB_B9-199">
          <mxGeometry x="40" width="140" height="30" as="geometry" />
        </mxCell>
        <mxCell id="iFAtIKYe37oV54bXB_B9-202" value="date" style="shape=partialRectangle;html=1;whiteSpace=wrap;connectable=0;fillColor=none;top=0;left=0;bottom=0;right=0;align=left;spacingLeft=6;overflow=hidden;" vertex="1" parent="iFAtIKYe37oV54bXB_B9-199">
          <mxGeometry x="180" width="40" height="30" as="geometry" />
        </mxCell>
        <mxCell id="iFAtIKYe37oV54bXB_B9-203" style="shape=partialRectangle;html=1;whiteSpace=wrap;collapsible=0;dropTarget=0;pointerEvents=0;fillColor=none;top=0;left=0;bottom=0;right=0;points=[[0,0.5],[1,0.5]];portConstraint=eastwest;" vertex="1" parent="iFAtIKYe37oV54bXB_B9-182">
          <mxGeometry y="180" width="220" height="30" as="geometry" />
        </mxCell>
        <mxCell id="iFAtIKYe37oV54bXB_B9-204" value="6" style="shape=partialRectangle;html=1;whiteSpace=wrap;connectable=0;fillColor=none;top=0;left=0;bottom=0;right=0;overflow=hidden;" vertex="1" parent="iFAtIKYe37oV54bXB_B9-203">
          <mxGeometry width="40" height="30" as="geometry" />
        </mxCell>
        <mxCell id="iFAtIKYe37oV54bXB_B9-205" value="fin" style="shape=partialRectangle;html=1;whiteSpace=wrap;connectable=0;fillColor=none;top=0;left=0;bottom=0;right=0;align=left;spacingLeft=6;overflow=hidden;" vertex="1" parent="iFAtIKYe37oV54bXB_B9-203">
          <mxGeometry x="40" width="140" height="30" as="geometry" />
        </mxCell>
        <mxCell id="iFAtIKYe37oV54bXB_B9-206" value="date" style="shape=partialRectangle;html=1;whiteSpace=wrap;connectable=0;fillColor=none;top=0;left=0;bottom=0;right=0;align=left;spacingLeft=6;overflow=hidden;" vertex="1" parent="iFAtIKYe37oV54bXB_B9-203">
          <mxGeometry x="180" width="40" height="30" as="geometry" />
        </mxCell>
        <mxCell id="iFAtIKYe37oV54bXB_B9-214" value="Table type animal" style="shape=table;html=1;whiteSpace=wrap;startSize=30;container=1;collapsible=0;childLayout=tableLayout;fixedRows=1;rowLines=0;fontStyle=1;align=center;" vertex="1" parent="1">
          <mxGeometry x="160" y="400" width="220" height="90" as="geometry" />
        </mxCell>
        <mxCell id="iFAtIKYe37oV54bXB_B9-215" value="" style="shape=partialRectangle;html=1;whiteSpace=wrap;collapsible=0;dropTarget=0;pointerEvents=0;fillColor=none;top=0;left=0;bottom=1;right=0;points=[[0,0.5],[1,0.5]];portConstraint=eastwest;" vertex="1" parent="iFAtIKYe37oV54bXB_B9-214">
          <mxGeometry y="30" width="220" height="30" as="geometry" />
        </mxCell>
        <mxCell id="iFAtIKYe37oV54bXB_B9-216" value="1" style="shape=partialRectangle;html=1;whiteSpace=wrap;connectable=0;fillColor=none;top=0;left=0;bottom=0;right=0;overflow=hidden;" vertex="1" parent="iFAtIKYe37oV54bXB_B9-215">
          <mxGeometry width="40" height="30" as="geometry" />
        </mxCell>
        <mxCell id="iFAtIKYe37oV54bXB_B9-217" value="id" style="shape=partialRectangle;html=1;whiteSpace=wrap;connectable=0;fillColor=none;top=0;left=0;bottom=0;right=0;align=left;spacingLeft=6;overflow=hidden;" vertex="1" parent="iFAtIKYe37oV54bXB_B9-215">
          <mxGeometry x="40" width="140" height="30" as="geometry" />
        </mxCell>
        <mxCell id="iFAtIKYe37oV54bXB_B9-261" value="serial" style="shape=partialRectangle;html=1;whiteSpace=wrap;connectable=0;fillColor=none;top=0;left=0;bottom=0;right=0;align=left;spacingLeft=6;overflow=hidden;" vertex="1" parent="iFAtIKYe37oV54bXB_B9-215">
          <mxGeometry x="180" width="40" height="30" as="geometry" />
        </mxCell>
        <mxCell id="iFAtIKYe37oV54bXB_B9-218" value="" style="shape=partialRectangle;html=1;whiteSpace=wrap;collapsible=0;dropTarget=0;pointerEvents=0;fillColor=none;top=0;left=0;bottom=0;right=0;points=[[0,0.5],[1,0.5]];portConstraint=eastwest;" vertex="1" parent="iFAtIKYe37oV54bXB_B9-214">
          <mxGeometry y="60" width="220" height="30" as="geometry" />
        </mxCell>
        <mxCell id="iFAtIKYe37oV54bXB_B9-219" value="2" style="shape=partialRectangle;html=1;whiteSpace=wrap;connectable=0;fillColor=none;top=0;left=0;bottom=0;right=0;overflow=hidden;" vertex="1" parent="iFAtIKYe37oV54bXB_B9-218">
          <mxGeometry width="40" height="30" as="geometry" />
        </mxCell>
        <mxCell id="iFAtIKYe37oV54bXB_B9-220" value="type" style="shape=partialRectangle;html=1;whiteSpace=wrap;connectable=0;fillColor=none;top=0;left=0;bottom=0;right=0;align=left;spacingLeft=6;overflow=hidden;" vertex="1" parent="iFAtIKYe37oV54bXB_B9-218">
          <mxGeometry x="40" width="140" height="30" as="geometry" />
        </mxCell>
        <mxCell id="iFAtIKYe37oV54bXB_B9-262" value="txt" style="shape=partialRectangle;html=1;whiteSpace=wrap;connectable=0;fillColor=none;top=0;left=0;bottom=0;right=0;align=left;spacingLeft=6;overflow=hidden;" vertex="1" parent="iFAtIKYe37oV54bXB_B9-218">
          <mxGeometry x="180" width="40" height="30" as="geometry" />
        </mxCell>
        <mxCell id="iFAtIKYe37oV54bXB_B9-230" value="" style="endArrow=classic;html=1;entryX=1;entryY=0.5;entryDx=0;entryDy=0;exitX=0;exitY=0.5;exitDx=0;exitDy=0;" edge="1" parent="1" source="iFAtIKYe37oV54bXB_B9-189" target="iFAtIKYe37oV54bXB_B9-215">
          <mxGeometry relative="1" as="geometry">
            <mxPoint x="450" y="430" as="sourcePoint" />
            <mxPoint x="500" y="300" as="targetPoint" />
          </mxGeometry>
        </mxCell>
        <mxCell id="iFAtIKYe37oV54bXB_B9-231" value="1-n" style="edgeLabel;resizable=0;html=1;align=center;verticalAlign=middle;" connectable="0" vertex="1" parent="iFAtIKYe37oV54bXB_B9-230">
          <mxGeometry relative="1" as="geometry" />
        </mxCell>
        <mxCell id="iFAtIKYe37oV54bXB_B9-232" value="" style="endArrow=classic;html=1;exitX=1;exitY=0.5;exitDx=0;exitDy=0;entryX=1;entryY=0.5;entryDx=0;entryDy=0;" edge="1" parent="1" source="iFAtIKYe37oV54bXB_B9-155" target="iFAtIKYe37oV54bXB_B9-215">
          <mxGeometry relative="1" as="geometry">
            <mxPoint x="380" y="260" as="sourcePoint" />
            <mxPoint x="480" y="260" as="targetPoint" />
            <Array as="points">
              <mxPoint x="440" y="655" />
              <mxPoint x="440" y="445" />
            </Array>
          </mxGeometry>
        </mxCell>
        <mxCell id="iFAtIKYe37oV54bXB_B9-233" value="1-n" style="edgeLabel;resizable=0;html=1;align=center;verticalAlign=middle;" connectable="0" vertex="1" parent="iFAtIKYe37oV54bXB_B9-232">
          <mxGeometry relative="1" as="geometry" />
        </mxCell>
        <mxCell id="iFAtIKYe37oV54bXB_B9-236" value="" style="endArrow=classic;html=1;entryX=1;entryY=0.5;entryDx=0;entryDy=0;exitX=1;exitY=0.5;exitDx=0;exitDy=0;" edge="1" parent="1" source="iFAtIKYe37oV54bXB_B9-149" target="iFAtIKYe37oV54bXB_B9-2">
          <mxGeometry relative="1" as="geometry">
            <mxPoint x="490" y="295" as="sourcePoint" />
            <mxPoint x="390" y="85" as="targetPoint" />
            <Array as="points">
              <mxPoint x="410" y="540" />
              <mxPoint x="420" y="90" />
            </Array>
          </mxGeometry>
        </mxCell>
        <mxCell id="iFAtIKYe37oV54bXB_B9-237" value="1-n" style="edgeLabel;resizable=0;html=1;align=center;verticalAlign=middle;" connectable="0" vertex="1" parent="iFAtIKYe37oV54bXB_B9-236">
          <mxGeometry relative="1" as="geometry">
            <mxPoint x="-1.09" y="-61.01" as="offset" />
          </mxGeometry>
        </mxCell>
        <mxCell id="iFAtIKYe37oV54bXB_B9-238" value="Table animal_hebergé" style="shape=table;html=1;whiteSpace=wrap;startSize=30;container=1;collapsible=0;childLayout=tableLayout;fixedRows=1;rowLines=0;fontStyle=1;align=center;" vertex="1" parent="1">
          <mxGeometry x="550" y="310" width="220" height="190" as="geometry" />
        </mxCell>
        <mxCell id="iFAtIKYe37oV54bXB_B9-239" value="" style="shape=partialRectangle;html=1;whiteSpace=wrap;collapsible=0;dropTarget=0;pointerEvents=0;fillColor=none;top=0;left=0;bottom=1;right=0;points=[[0,0.5],[1,0.5]];portConstraint=eastwest;" vertex="1" parent="iFAtIKYe37oV54bXB_B9-238">
          <mxGeometry y="30" width="220" height="30" as="geometry" />
        </mxCell>
        <mxCell id="iFAtIKYe37oV54bXB_B9-240" value="1" style="shape=partialRectangle;html=1;whiteSpace=wrap;connectable=0;fillColor=none;top=0;left=0;bottom=0;right=0;overflow=hidden;" vertex="1" parent="iFAtIKYe37oV54bXB_B9-239">
          <mxGeometry width="40" height="30" as="geometry" />
        </mxCell>
        <mxCell id="iFAtIKYe37oV54bXB_B9-241" value="id" style="shape=partialRectangle;html=1;whiteSpace=wrap;connectable=0;fillColor=none;top=0;left=0;bottom=0;right=0;align=left;spacingLeft=6;overflow=hidden;" vertex="1" parent="iFAtIKYe37oV54bXB_B9-239">
          <mxGeometry x="40" width="140" height="30" as="geometry" />
        </mxCell>
        <mxCell id="iFAtIKYe37oV54bXB_B9-248" value="serial" style="shape=partialRectangle;html=1;whiteSpace=wrap;connectable=0;fillColor=none;top=0;left=0;bottom=0;right=0;align=left;spacingLeft=6;overflow=hidden;" vertex="1" parent="iFAtIKYe37oV54bXB_B9-239">
          <mxGeometry x="180" width="40" height="30" as="geometry" />
        </mxCell>
        <mxCell id="iFAtIKYe37oV54bXB_B9-242" value="" style="shape=partialRectangle;html=1;whiteSpace=wrap;collapsible=0;dropTarget=0;pointerEvents=0;fillColor=none;top=0;left=0;bottom=0;right=0;points=[[0,0.5],[1,0.5]];portConstraint=eastwest;" vertex="1" parent="iFAtIKYe37oV54bXB_B9-238">
          <mxGeometry y="60" width="220" height="30" as="geometry" />
        </mxCell>
        <mxCell id="iFAtIKYe37oV54bXB_B9-243" value="2" style="shape=partialRectangle;html=1;whiteSpace=wrap;connectable=0;fillColor=none;top=0;left=0;bottom=0;right=0;overflow=hidden;" vertex="1" parent="iFAtIKYe37oV54bXB_B9-242">
          <mxGeometry width="40" height="30" as="geometry" />
        </mxCell>
        <mxCell id="iFAtIKYe37oV54bXB_B9-244" value="id_animal" style="shape=partialRectangle;html=1;whiteSpace=wrap;connectable=0;fillColor=none;top=0;left=0;bottom=0;right=0;align=left;spacingLeft=6;overflow=hidden;" vertex="1" parent="iFAtIKYe37oV54bXB_B9-242">
          <mxGeometry x="40" width="140" height="30" as="geometry" />
        </mxCell>
        <mxCell id="iFAtIKYe37oV54bXB_B9-249" value="int" style="shape=partialRectangle;html=1;whiteSpace=wrap;connectable=0;fillColor=none;top=0;left=0;bottom=0;right=0;align=left;spacingLeft=6;overflow=hidden;" vertex="1" parent="iFAtIKYe37oV54bXB_B9-242">
          <mxGeometry x="180" width="40" height="30" as="geometry" />
        </mxCell>
        <mxCell id="iFAtIKYe37oV54bXB_B9-245" value="" style="shape=partialRectangle;html=1;whiteSpace=wrap;collapsible=0;dropTarget=0;pointerEvents=0;fillColor=none;top=0;left=0;bottom=0;right=0;points=[[0,0.5],[1,0.5]];portConstraint=eastwest;" vertex="1" parent="iFAtIKYe37oV54bXB_B9-238">
          <mxGeometry y="90" width="220" height="30" as="geometry" />
        </mxCell>
        <mxCell id="iFAtIKYe37oV54bXB_B9-246" value="3" style="shape=partialRectangle;html=1;whiteSpace=wrap;connectable=0;fillColor=none;top=0;left=0;bottom=0;right=0;overflow=hidden;" vertex="1" parent="iFAtIKYe37oV54bXB_B9-245">
          <mxGeometry width="40" height="30" as="geometry" />
        </mxCell>
        <mxCell id="iFAtIKYe37oV54bXB_B9-247" value="id_plage_hebergement" style="shape=partialRectangle;html=1;whiteSpace=wrap;connectable=0;fillColor=none;top=0;left=0;bottom=0;right=0;align=left;spacingLeft=6;overflow=hidden;" vertex="1" parent="iFAtIKYe37oV54bXB_B9-245">
          <mxGeometry x="40" width="140" height="30" as="geometry" />
        </mxCell>
        <mxCell id="iFAtIKYe37oV54bXB_B9-250" value="int" style="shape=partialRectangle;html=1;whiteSpace=wrap;connectable=0;fillColor=none;top=0;left=0;bottom=0;right=0;align=left;spacingLeft=6;overflow=hidden;" vertex="1" parent="iFAtIKYe37oV54bXB_B9-245">
          <mxGeometry x="180" width="40" height="30" as="geometry" />
        </mxCell>
        <mxCell id="iFAtIKYe37oV54bXB_B9-264" style="shape=partialRectangle;html=1;whiteSpace=wrap;collapsible=0;dropTarget=0;pointerEvents=0;fillColor=none;top=0;left=0;bottom=0;right=0;points=[[0,0.5],[1,0.5]];portConstraint=eastwest;" vertex="1" parent="iFAtIKYe37oV54bXB_B9-238">
          <mxGeometry y="120" width="220" height="30" as="geometry" />
        </mxCell>
        <mxCell id="iFAtIKYe37oV54bXB_B9-265" value="4" style="shape=partialRectangle;html=1;whiteSpace=wrap;connectable=0;fillColor=none;top=0;left=0;bottom=0;right=0;overflow=hidden;" vertex="1" parent="iFAtIKYe37oV54bXB_B9-264">
          <mxGeometry width="40" height="30" as="geometry" />
        </mxCell>
        <mxCell id="iFAtIKYe37oV54bXB_B9-266" value="date_debut" style="shape=partialRectangle;html=1;whiteSpace=wrap;connectable=0;fillColor=none;top=0;left=0;bottom=0;right=0;align=left;spacingLeft=6;overflow=hidden;" vertex="1" parent="iFAtIKYe37oV54bXB_B9-264">
          <mxGeometry x="40" width="140" height="30" as="geometry" />
        </mxCell>
        <mxCell id="iFAtIKYe37oV54bXB_B9-267" value="date" style="shape=partialRectangle;html=1;whiteSpace=wrap;connectable=0;fillColor=none;top=0;left=0;bottom=0;right=0;align=left;spacingLeft=6;overflow=hidden;" vertex="1" parent="iFAtIKYe37oV54bXB_B9-264">
          <mxGeometry x="180" width="40" height="30" as="geometry" />
        </mxCell>
        <mxCell id="iFAtIKYe37oV54bXB_B9-268" style="shape=partialRectangle;html=1;whiteSpace=wrap;collapsible=0;dropTarget=0;pointerEvents=0;fillColor=none;top=0;left=0;bottom=0;right=0;points=[[0,0.5],[1,0.5]];portConstraint=eastwest;" vertex="1" parent="iFAtIKYe37oV54bXB_B9-238">
          <mxGeometry y="150" width="220" height="30" as="geometry" />
        </mxCell>
        <mxCell id="iFAtIKYe37oV54bXB_B9-269" value="5" style="shape=partialRectangle;html=1;whiteSpace=wrap;connectable=0;fillColor=none;top=0;left=0;bottom=0;right=0;overflow=hidden;" vertex="1" parent="iFAtIKYe37oV54bXB_B9-268">
          <mxGeometry width="40" height="30" as="geometry" />
        </mxCell>
        <mxCell id="iFAtIKYe37oV54bXB_B9-270" value="date_fin" style="shape=partialRectangle;html=1;whiteSpace=wrap;connectable=0;fillColor=none;top=0;left=0;bottom=0;right=0;align=left;spacingLeft=6;overflow=hidden;" vertex="1" parent="iFAtIKYe37oV54bXB_B9-268">
          <mxGeometry x="40" width="140" height="30" as="geometry" />
        </mxCell>
        <mxCell id="iFAtIKYe37oV54bXB_B9-271" value="date" style="shape=partialRectangle;html=1;whiteSpace=wrap;connectable=0;fillColor=none;top=0;left=0;bottom=0;right=0;align=left;spacingLeft=6;overflow=hidden;" vertex="1" parent="iFAtIKYe37oV54bXB_B9-268">
          <mxGeometry x="180" width="40" height="30" as="geometry" />
        </mxCell>
        <mxCell id="iFAtIKYe37oV54bXB_B9-251" value="Table Alert" style="shape=table;html=1;whiteSpace=wrap;startSize=30;container=1;collapsible=0;childLayout=tableLayout;fixedRows=1;rowLines=0;fontStyle=1;align=center;" vertex="1" parent="1">
          <mxGeometry x="-240" y="25" width="220" height="350" as="geometry" />
        </mxCell>
        <mxCell id="iFAtIKYe37oV54bXB_B9-252" value="" style="shape=partialRectangle;html=1;whiteSpace=wrap;collapsible=0;dropTarget=0;pointerEvents=0;fillColor=none;top=0;left=0;bottom=1;right=0;points=[[0,0.5],[1,0.5]];portConstraint=eastwest;" vertex="1" parent="iFAtIKYe37oV54bXB_B9-251">
          <mxGeometry y="30" width="220" height="30" as="geometry" />
        </mxCell>
        <mxCell id="iFAtIKYe37oV54bXB_B9-253" value="1" style="shape=partialRectangle;html=1;whiteSpace=wrap;connectable=0;fillColor=none;top=0;left=0;bottom=0;right=0;overflow=hidden;" vertex="1" parent="iFAtIKYe37oV54bXB_B9-252">
          <mxGeometry width="40" height="30" as="geometry" />
        </mxCell>
        <mxCell id="iFAtIKYe37oV54bXB_B9-254" value="id" style="shape=partialRectangle;html=1;whiteSpace=wrap;connectable=0;fillColor=none;top=0;left=0;bottom=0;right=0;align=left;spacingLeft=6;overflow=hidden;" vertex="1" parent="iFAtIKYe37oV54bXB_B9-252">
          <mxGeometry x="40" width="140" height="30" as="geometry" />
        </mxCell>
        <mxCell id="iFAtIKYe37oV54bXB_B9-280" value="serial" style="shape=partialRectangle;html=1;whiteSpace=wrap;connectable=0;fillColor=none;top=0;left=0;bottom=0;right=0;align=left;spacingLeft=6;overflow=hidden;" vertex="1" parent="iFAtIKYe37oV54bXB_B9-252">
          <mxGeometry x="180" width="40" height="30" as="geometry" />
        </mxCell>
        <mxCell id="iFAtIKYe37oV54bXB_B9-255" value="" style="shape=partialRectangle;html=1;whiteSpace=wrap;collapsible=0;dropTarget=0;pointerEvents=0;fillColor=none;top=0;left=0;bottom=0;right=0;points=[[0,0.5],[1,0.5]];portConstraint=eastwest;" vertex="1" parent="iFAtIKYe37oV54bXB_B9-251">
          <mxGeometry y="60" width="220" height="30" as="geometry" />
        </mxCell>
        <mxCell id="iFAtIKYe37oV54bXB_B9-256" value="2" style="shape=partialRectangle;html=1;whiteSpace=wrap;connectable=0;fillColor=none;top=0;left=0;bottom=0;right=0;overflow=hidden;" vertex="1" parent="iFAtIKYe37oV54bXB_B9-255">
          <mxGeometry width="40" height="30" as="geometry" />
        </mxCell>
        <mxCell id="iFAtIKYe37oV54bXB_B9-257" value="id_user" style="shape=partialRectangle;html=1;whiteSpace=wrap;connectable=0;fillColor=none;top=0;left=0;bottom=0;right=0;align=left;spacingLeft=6;overflow=hidden;" vertex="1" parent="iFAtIKYe37oV54bXB_B9-255">
          <mxGeometry x="40" width="140" height="30" as="geometry" />
        </mxCell>
        <mxCell id="iFAtIKYe37oV54bXB_B9-281" value="int" style="shape=partialRectangle;html=1;whiteSpace=wrap;connectable=0;fillColor=none;top=0;left=0;bottom=0;right=0;align=left;spacingLeft=6;overflow=hidden;" vertex="1" parent="iFAtIKYe37oV54bXB_B9-255">
          <mxGeometry x="180" width="40" height="30" as="geometry" />
        </mxCell>
        <mxCell id="iFAtIKYe37oV54bXB_B9-258" value="" style="shape=partialRectangle;html=1;whiteSpace=wrap;collapsible=0;dropTarget=0;pointerEvents=0;fillColor=none;top=0;left=0;bottom=0;right=0;points=[[0,0.5],[1,0.5]];portConstraint=eastwest;" vertex="1" parent="iFAtIKYe37oV54bXB_B9-251">
          <mxGeometry y="90" width="220" height="30" as="geometry" />
        </mxCell>
        <mxCell id="iFAtIKYe37oV54bXB_B9-259" value="3" style="shape=partialRectangle;html=1;whiteSpace=wrap;connectable=0;fillColor=none;top=0;left=0;bottom=0;right=0;overflow=hidden;" vertex="1" parent="iFAtIKYe37oV54bXB_B9-258">
          <mxGeometry width="40" height="30" as="geometry" />
        </mxCell>
        <mxCell id="iFAtIKYe37oV54bXB_B9-260" value="id_animal" style="shape=partialRectangle;html=1;whiteSpace=wrap;connectable=0;fillColor=none;top=0;left=0;bottom=0;right=0;align=left;spacingLeft=6;overflow=hidden;" vertex="1" parent="iFAtIKYe37oV54bXB_B9-258">
          <mxGeometry x="40" width="140" height="30" as="geometry" />
        </mxCell>
        <mxCell id="iFAtIKYe37oV54bXB_B9-282" value="int" style="shape=partialRectangle;html=1;whiteSpace=wrap;connectable=0;fillColor=none;top=0;left=0;bottom=0;right=0;align=left;spacingLeft=6;overflow=hidden;" vertex="1" parent="iFAtIKYe37oV54bXB_B9-258">
          <mxGeometry x="180" width="40" height="30" as="geometry" />
        </mxCell>
        <mxCell id="iFAtIKYe37oV54bXB_B9-287" style="shape=partialRectangle;html=1;whiteSpace=wrap;collapsible=0;dropTarget=0;pointerEvents=0;fillColor=none;top=0;left=0;bottom=0;right=0;points=[[0,0.5],[1,0.5]];portConstraint=eastwest;" vertex="1" parent="iFAtIKYe37oV54bXB_B9-251">
          <mxGeometry y="120" width="220" height="35" as="geometry" />
        </mxCell>
        <mxCell id="iFAtIKYe37oV54bXB_B9-288" value="4" style="shape=partialRectangle;html=1;whiteSpace=wrap;connectable=0;fillColor=none;top=0;left=0;bottom=0;right=0;overflow=hidden;" vertex="1" parent="iFAtIKYe37oV54bXB_B9-287">
          <mxGeometry width="40" height="35" as="geometry" />
        </mxCell>
        <mxCell id="iFAtIKYe37oV54bXB_B9-289" value="mail" style="shape=partialRectangle;html=1;whiteSpace=wrap;connectable=0;fillColor=none;top=0;left=0;bottom=0;right=0;align=left;spacingLeft=6;overflow=hidden;" vertex="1" parent="iFAtIKYe37oV54bXB_B9-287">
          <mxGeometry x="40" width="140" height="35" as="geometry" />
        </mxCell>
        <mxCell id="iFAtIKYe37oV54bXB_B9-290" value="txt" style="shape=partialRectangle;html=1;whiteSpace=wrap;connectable=0;fillColor=none;top=0;left=0;bottom=0;right=0;align=left;spacingLeft=6;overflow=hidden;" vertex="1" parent="iFAtIKYe37oV54bXB_B9-287">
          <mxGeometry x="180" width="40" height="35" as="geometry" />
        </mxCell>
        <mxCell id="iFAtIKYe37oV54bXB_B9-291" style="shape=partialRectangle;html=1;whiteSpace=wrap;collapsible=0;dropTarget=0;pointerEvents=0;fillColor=none;top=0;left=0;bottom=0;right=0;points=[[0,0.5],[1,0.5]];portConstraint=eastwest;" vertex="1" parent="iFAtIKYe37oV54bXB_B9-251">
          <mxGeometry y="155" width="220" height="30" as="geometry" />
        </mxCell>
        <mxCell id="iFAtIKYe37oV54bXB_B9-292" value="5" style="shape=partialRectangle;html=1;whiteSpace=wrap;connectable=0;fillColor=none;top=0;left=0;bottom=0;right=0;overflow=hidden;" vertex="1" parent="iFAtIKYe37oV54bXB_B9-291">
          <mxGeometry width="40" height="30" as="geometry" />
        </mxCell>
        <mxCell id="iFAtIKYe37oV54bXB_B9-293" value="type_animal" style="shape=partialRectangle;html=1;whiteSpace=wrap;connectable=0;fillColor=none;top=0;left=0;bottom=0;right=0;align=left;spacingLeft=6;overflow=hidden;" vertex="1" parent="iFAtIKYe37oV54bXB_B9-291">
          <mxGeometry x="40" width="140" height="30" as="geometry" />
        </mxCell>
        <mxCell id="iFAtIKYe37oV54bXB_B9-294" value="date" style="shape=partialRectangle;html=1;whiteSpace=wrap;connectable=0;fillColor=none;top=0;left=0;bottom=0;right=0;align=left;spacingLeft=6;overflow=hidden;" vertex="1" parent="iFAtIKYe37oV54bXB_B9-291">
          <mxGeometry x="180" width="40" height="30" as="geometry" />
        </mxCell>
        <mxCell id="iFAtIKYe37oV54bXB_B9-295" style="shape=partialRectangle;html=1;whiteSpace=wrap;collapsible=0;dropTarget=0;pointerEvents=0;fillColor=none;top=0;left=0;bottom=0;right=0;points=[[0,0.5],[1,0.5]];portConstraint=eastwest;" vertex="1" parent="iFAtIKYe37oV54bXB_B9-251">
          <mxGeometry y="185" width="220" height="30" as="geometry" />
        </mxCell>
        <mxCell id="iFAtIKYe37oV54bXB_B9-296" value="6" style="shape=partialRectangle;html=1;whiteSpace=wrap;connectable=0;fillColor=none;top=0;left=0;bottom=0;right=0;overflow=hidden;" vertex="1" parent="iFAtIKYe37oV54bXB_B9-295">
          <mxGeometry width="40" height="30" as="geometry" />
        </mxCell>
        <mxCell id="iFAtIKYe37oV54bXB_B9-297" value="lieu" style="shape=partialRectangle;html=1;whiteSpace=wrap;connectable=0;fillColor=none;top=0;left=0;bottom=0;right=0;align=left;spacingLeft=6;overflow=hidden;" vertex="1" parent="iFAtIKYe37oV54bXB_B9-295">
          <mxGeometry x="40" width="140" height="30" as="geometry" />
        </mxCell>
        <mxCell id="iFAtIKYe37oV54bXB_B9-298" value="lieu" style="shape=partialRectangle;html=1;whiteSpace=wrap;connectable=0;fillColor=none;top=0;left=0;bottom=0;right=0;align=left;spacingLeft=6;overflow=hidden;" vertex="1" parent="iFAtIKYe37oV54bXB_B9-295">
          <mxGeometry x="180" width="40" height="30" as="geometry" />
        </mxCell>
        <mxCell id="iFAtIKYe37oV54bXB_B9-299" style="shape=partialRectangle;html=1;whiteSpace=wrap;collapsible=0;dropTarget=0;pointerEvents=0;fillColor=none;top=0;left=0;bottom=0;right=0;points=[[0,0.5],[1,0.5]];portConstraint=eastwest;" vertex="1" parent="iFAtIKYe37oV54bXB_B9-251">
          <mxGeometry y="215" width="220" height="30" as="geometry" />
        </mxCell>
        <mxCell id="iFAtIKYe37oV54bXB_B9-300" value="7" style="shape=partialRectangle;html=1;whiteSpace=wrap;connectable=0;fillColor=none;top=0;left=0;bottom=0;right=0;overflow=hidden;" vertex="1" parent="iFAtIKYe37oV54bXB_B9-299">
          <mxGeometry width="40" height="30" as="geometry" />
        </mxCell>
        <mxCell id="iFAtIKYe37oV54bXB_B9-301" value="date" style="shape=partialRectangle;html=1;whiteSpace=wrap;connectable=0;fillColor=none;top=0;left=0;bottom=0;right=0;align=left;spacingLeft=6;overflow=hidden;" vertex="1" parent="iFAtIKYe37oV54bXB_B9-299">
          <mxGeometry x="40" width="140" height="30" as="geometry" />
        </mxCell>
        <mxCell id="iFAtIKYe37oV54bXB_B9-302" value="date" style="shape=partialRectangle;html=1;whiteSpace=wrap;connectable=0;fillColor=none;top=0;left=0;bottom=0;right=0;align=left;spacingLeft=6;overflow=hidden;" vertex="1" parent="iFAtIKYe37oV54bXB_B9-299">
          <mxGeometry x="180" width="40" height="30" as="geometry" />
        </mxCell>
        <mxCell id="iFAtIKYe37oV54bXB_B9-338" style="shape=partialRectangle;html=1;whiteSpace=wrap;collapsible=0;dropTarget=0;pointerEvents=0;fillColor=none;top=0;left=0;bottom=0;right=0;points=[[0,0.5],[1,0.5]];portConstraint=eastwest;" vertex="1" parent="iFAtIKYe37oV54bXB_B9-251">
          <mxGeometry y="245" width="220" height="30" as="geometry" />
        </mxCell>
        <mxCell id="iFAtIKYe37oV54bXB_B9-339" value="8" style="shape=partialRectangle;html=1;whiteSpace=wrap;connectable=0;fillColor=none;top=0;left=0;bottom=0;right=0;overflow=hidden;" vertex="1" parent="iFAtIKYe37oV54bXB_B9-338">
          <mxGeometry width="40" height="30" as="geometry" />
        </mxCell>
        <mxCell id="iFAtIKYe37oV54bXB_B9-340" value="photo" style="shape=partialRectangle;html=1;whiteSpace=wrap;connectable=0;fillColor=none;top=0;left=0;bottom=0;right=0;align=left;spacingLeft=6;overflow=hidden;" vertex="1" parent="iFAtIKYe37oV54bXB_B9-338">
          <mxGeometry x="40" width="140" height="30" as="geometry" />
        </mxCell>
        <mxCell id="iFAtIKYe37oV54bXB_B9-341" value="img" style="shape=partialRectangle;html=1;whiteSpace=wrap;connectable=0;fillColor=none;top=0;left=0;bottom=0;right=0;align=left;spacingLeft=6;overflow=hidden;" vertex="1" parent="iFAtIKYe37oV54bXB_B9-338">
          <mxGeometry x="180" width="40" height="30" as="geometry" />
        </mxCell>
        <mxCell id="iFAtIKYe37oV54bXB_B9-342" style="shape=partialRectangle;html=1;whiteSpace=wrap;collapsible=0;dropTarget=0;pointerEvents=0;fillColor=none;top=0;left=0;bottom=0;right=0;points=[[0,0.5],[1,0.5]];portConstraint=eastwest;" vertex="1" parent="iFAtIKYe37oV54bXB_B9-251">
          <mxGeometry y="275" width="220" height="30" as="geometry" />
        </mxCell>
        <mxCell id="iFAtIKYe37oV54bXB_B9-343" value="9" style="shape=partialRectangle;html=1;whiteSpace=wrap;connectable=0;fillColor=none;top=0;left=0;bottom=0;right=0;overflow=hidden;" vertex="1" parent="iFAtIKYe37oV54bXB_B9-342">
          <mxGeometry width="40" height="30" as="geometry" />
        </mxCell>
        <mxCell id="iFAtIKYe37oV54bXB_B9-344" value="description" style="shape=partialRectangle;html=1;whiteSpace=wrap;connectable=0;fillColor=none;top=0;left=0;bottom=0;right=0;align=left;spacingLeft=6;overflow=hidden;" vertex="1" parent="iFAtIKYe37oV54bXB_B9-342">
          <mxGeometry x="40" width="140" height="30" as="geometry" />
        </mxCell>
        <mxCell id="iFAtIKYe37oV54bXB_B9-345" value="txt" style="shape=partialRectangle;html=1;whiteSpace=wrap;connectable=0;fillColor=none;top=0;left=0;bottom=0;right=0;align=left;spacingLeft=6;overflow=hidden;" vertex="1" parent="iFAtIKYe37oV54bXB_B9-342">
          <mxGeometry x="180" width="40" height="30" as="geometry" />
        </mxCell>
        <mxCell id="iFAtIKYe37oV54bXB_B9-346" style="shape=partialRectangle;html=1;whiteSpace=wrap;collapsible=0;dropTarget=0;pointerEvents=0;fillColor=none;top=0;left=0;bottom=0;right=0;points=[[0,0.5],[1,0.5]];portConstraint=eastwest;" vertex="1" parent="iFAtIKYe37oV54bXB_B9-251">
          <mxGeometry y="305" width="220" height="30" as="geometry" />
        </mxCell>
        <mxCell id="iFAtIKYe37oV54bXB_B9-347" value="10" style="shape=partialRectangle;html=1;whiteSpace=wrap;connectable=0;fillColor=none;top=0;left=0;bottom=0;right=0;overflow=hidden;" vertex="1" parent="iFAtIKYe37oV54bXB_B9-346">
          <mxGeometry width="40" height="30" as="geometry" />
        </mxCell>
        <mxCell id="iFAtIKYe37oV54bXB_B9-348" value="type_alert" style="shape=partialRectangle;html=1;whiteSpace=wrap;connectable=0;fillColor=none;top=0;left=0;bottom=0;right=0;align=left;spacingLeft=6;overflow=hidden;" vertex="1" parent="iFAtIKYe37oV54bXB_B9-346">
          <mxGeometry x="40" width="140" height="30" as="geometry" />
        </mxCell>
        <mxCell id="iFAtIKYe37oV54bXB_B9-349" value="txt" style="shape=partialRectangle;html=1;whiteSpace=wrap;connectable=0;fillColor=none;top=0;left=0;bottom=0;right=0;align=left;spacingLeft=6;overflow=hidden;" vertex="1" parent="iFAtIKYe37oV54bXB_B9-346">
          <mxGeometry x="180" width="40" height="30" as="geometry" />
        </mxCell>
        <mxCell id="iFAtIKYe37oV54bXB_B9-272" value="" style="endArrow=classic;html=1;exitX=1;exitY=0.5;exitDx=0;exitDy=0;entryX=1;entryY=0.5;entryDx=0;entryDy=0;" edge="1" parent="1" source="iFAtIKYe37oV54bXB_B9-242" target="iFAtIKYe37oV54bXB_B9-149">
          <mxGeometry relative="1" as="geometry">
            <mxPoint x="290" y="410" as="sourcePoint" />
            <mxPoint x="390" y="410" as="targetPoint" />
            <Array as="points">
              <mxPoint x="800" y="385" />
              <mxPoint x="800" y="595" />
            </Array>
          </mxGeometry>
        </mxCell>
        <mxCell id="iFAtIKYe37oV54bXB_B9-273" value="1-n" style="edgeLabel;resizable=0;html=1;align=center;verticalAlign=middle;" connectable="0" vertex="1" parent="iFAtIKYe37oV54bXB_B9-272">
          <mxGeometry relative="1" as="geometry" />
        </mxCell>
        <mxCell id="iFAtIKYe37oV54bXB_B9-274" value="" style="endArrow=classic;html=1;exitX=1;exitY=0.5;exitDx=0;exitDy=0;entryX=1;entryY=0.5;entryDx=0;entryDy=0;" edge="1" parent="1" source="iFAtIKYe37oV54bXB_B9-245" target="iFAtIKYe37oV54bXB_B9-183">
          <mxGeometry relative="1" as="geometry">
            <mxPoint x="360" y="510" as="sourcePoint" />
            <mxPoint x="460" y="510" as="targetPoint" />
            <Array as="points">
              <mxPoint x="820" y="415" />
              <mxPoint x="820" y="75" />
            </Array>
          </mxGeometry>
        </mxCell>
        <mxCell id="iFAtIKYe37oV54bXB_B9-275" value="1-n" style="edgeLabel;resizable=0;html=1;align=center;verticalAlign=middle;" connectable="0" vertex="1" parent="iFAtIKYe37oV54bXB_B9-274">
          <mxGeometry relative="1" as="geometry" />
        </mxCell>
        <mxCell id="iFAtIKYe37oV54bXB_B9-276" value="" style="endArrow=classic;html=1;exitX=0;exitY=0.5;exitDx=0;exitDy=0;entryX=1;entryY=0.5;entryDx=0;entryDy=0;" edge="1" parent="1" source="iFAtIKYe37oV54bXB_B9-186" target="iFAtIKYe37oV54bXB_B9-2">
          <mxGeometry relative="1" as="geometry">
            <mxPoint x="290" y="410" as="sourcePoint" />
            <mxPoint x="390" y="410" as="targetPoint" />
            <Array as="points">
              <mxPoint x="460" y="70" />
            </Array>
          </mxGeometry>
        </mxCell>
        <mxCell id="iFAtIKYe37oV54bXB_B9-277" value="1-n" style="edgeLabel;resizable=0;html=1;align=center;verticalAlign=middle;" connectable="0" vertex="1" parent="iFAtIKYe37oV54bXB_B9-276">
          <mxGeometry relative="1" as="geometry" />
        </mxCell>
        <mxCell id="iFAtIKYe37oV54bXB_B9-303" value="" style="endArrow=classic;html=1;exitX=1;exitY=0.5;exitDx=0;exitDy=0;entryX=0;entryY=0.5;entryDx=0;entryDy=0;" edge="1" parent="1" source="iFAtIKYe37oV54bXB_B9-255" target="iFAtIKYe37oV54bXB_B9-2">
          <mxGeometry relative="1" as="geometry">
            <mxPoint x="60" y="320" as="sourcePoint" />
            <mxPoint x="160" y="320" as="targetPoint" />
          </mxGeometry>
        </mxCell>
        <mxCell id="iFAtIKYe37oV54bXB_B9-304" value="1-n" style="edgeLabel;resizable=0;html=1;align=center;verticalAlign=middle;" connectable="0" vertex="1" parent="iFAtIKYe37oV54bXB_B9-303">
          <mxGeometry relative="1" as="geometry" />
        </mxCell>
        <mxCell id="iFAtIKYe37oV54bXB_B9-305" value="" style="endArrow=classic;html=1;exitX=1;exitY=0.5;exitDx=0;exitDy=0;entryX=0;entryY=0.5;entryDx=0;entryDy=0;" edge="1" parent="1" source="iFAtIKYe37oV54bXB_B9-258" target="iFAtIKYe37oV54bXB_B9-149">
          <mxGeometry relative="1" as="geometry">
            <mxPoint x="60" y="320" as="sourcePoint" />
            <mxPoint x="160" y="320" as="targetPoint" />
            <Array as="points">
              <mxPoint x="120" y="130" />
              <mxPoint x="120" y="555" />
            </Array>
          </mxGeometry>
        </mxCell>
        <mxCell id="iFAtIKYe37oV54bXB_B9-306" value="1-n" style="edgeLabel;resizable=0;html=1;align=center;verticalAlign=middle;" connectable="0" vertex="1" parent="iFAtIKYe37oV54bXB_B9-305">
          <mxGeometry relative="1" as="geometry" />
        </mxCell>
        <mxCell id="iFAtIKYe37oV54bXB_B9-336" value="" style="endArrow=classic;html=1;exitX=1;exitY=0.5;exitDx=0;exitDy=0;entryX=0;entryY=0.5;entryDx=0;entryDy=0;" edge="1" parent="1" source="iFAtIKYe37oV54bXB_B9-291" target="iFAtIKYe37oV54bXB_B9-215">
          <mxGeometry relative="1" as="geometry">
            <mxPoint x="-20" y="495" as="sourcePoint" />
            <mxPoint x="160" y="320" as="targetPoint" />
          </mxGeometry>
        </mxCell>
        <mxCell id="iFAtIKYe37oV54bXB_B9-337" value="1-n" style="edgeLabel;resizable=0;html=1;align=center;verticalAlign=middle;" connectable="0" vertex="1" parent="iFAtIKYe37oV54bXB_B9-336">
          <mxGeometry relative="1" as="geometry" />
        </mxCell>
        <mxCell id="iFAtIKYe37oV54bXB_B9-365" value="&lt;b&gt;&lt;font style=&quot;font-size: 22px&quot;&gt;Section Animal&lt;/font&gt;&lt;/b&gt;" style="text;html=1;strokeColor=none;fillColor=none;align=center;verticalAlign=middle;whiteSpace=wrap;rounded=0;" vertex="1" parent="1">
          <mxGeometry x="160" y="730" width="190" height="20" as="geometry" />
        </mxCell>
        <mxCell id="iFAtIKYe37oV54bXB_B9-396" value="&lt;b&gt;&lt;font style=&quot;font-size: 22px&quot;&gt;Section Alert&lt;/font&gt;&lt;/b&gt;" style="text;html=1;strokeColor=none;fillColor=none;align=center;verticalAlign=middle;whiteSpace=wrap;rounded=0;" vertex="1" parent="1">
          <mxGeometry x="-240" y="380" width="190" height="20" as="geometry" />
        </mxCell>
        <mxCell id="iFAtIKYe37oV54bXB_B9-398" value="&lt;b&gt;&lt;font style=&quot;font-size: 22px&quot;&gt;Section hebergement&lt;/font&gt;&lt;/b&gt;" style="text;html=1;strokeColor=none;fillColor=none;align=center;verticalAlign=middle;whiteSpace=wrap;rounded=0;" vertex="1" parent="1">
          <mxGeometry x="520" y="520" width="280" height="20" as="geometry" />
        </mxCell>
        <mxCell id="iFAtIKYe37oV54bXB_B9-400" value="&lt;b&gt;&lt;font style=&quot;font-size: 22px&quot;&gt;Section profil&lt;/font&gt;&lt;/b&gt;" style="text;html=1;strokeColor=none;fillColor=none;align=center;verticalAlign=middle;whiteSpace=wrap;rounded=0;" vertex="1" parent="1">
          <mxGeometry x="180" y="240" width="170" height="20" as="geometry" />
        </mxCell>
      </root>
    </mxGraphModel>
  </diagram>
</mxfile>
